<svg xmlns="http://www.w3.org/2000/svg" version="1.1" xmlns:xlink="http://www.w3.org/1999/xlink" xmlns:svgjs="http://svgjs.com/svgjs" width="1440" height="560" preserveAspectRatio="none" viewBox="0 0 1440 560"><g mask="url(&quot;#SvgjsMask19637&quot;)" fill="none"><rect width="1440" height="560" x="0" y="0" fill="url(#SvgjsLinearGradient19638)"></rect><path d="M35 486L34 755" stroke-width="6" stroke="url(#SvgjsLinearGradient19639)" stroke-linecap="round" class="Up"></path><path d="M279 77L278 366" stroke-width="8" stroke="url(#SvgjsLinearGradient19639)" stroke-linecap="round" class="Up"></path><path d="M999 5L998 -376" stroke-width="8" stroke="url(#SvgjsLinearGradient19639)" stroke-linecap="round" class="Up"></path><path d="M486 536L485 892" stroke-width="8" stroke="url(#SvgjsLinearGradient19639)" stroke-linecap="round" class="Up"></path><path d="M573 146L572 516" stroke-width="8" stroke="url(#SvgjsLinearGradient19639)" stroke-linecap="round" class="Up"></path><path d="M427 131L426 291" stroke-width="10" stroke="url(#SvgjsLinearGradient19639)" stroke-linecap="round" class="Up"></path><path d="M1423 131L1422 511" stroke-width="10" stroke="url(#SvgjsLinearGradient19640)" stroke-linecap="round" class="Down"></path><path d="M957 115L956 -35" stroke-width="10" stroke="url(#SvgjsLinearGradient19640)" stroke-linecap="round" class="Down"></path><path d="M682 101L681 -131" stroke-width="6" stroke="url(#SvgjsLinearGradient19640)" stroke-linecap="round" class="Down"></path><path d="M368 72L367 383" stroke-width="10" stroke="url(#SvgjsLinearGradient19640)" stroke-linecap="round" class="Down"></path><path d="M1009 287L1008 590" stroke-width="8" stroke="url(#SvgjsLinearGradient19640)" stroke-linecap="round" class="Down"></path><path d="M1415 458L1414 837" stroke-width="8" stroke="url(#SvgjsLinearGradient19639)" stroke-linecap="round" class="Up"></path><path d="M495 422L494 567" stroke-width="6" stroke="url(#SvgjsLinearGradient19639)" stroke-linecap="round" class="Up"></path><path d="M116 392L115 120" stroke-width="6" stroke="url(#SvgjsLinearGradient19640)" stroke-linecap="round" class="Down"></path><path d="M160 313L159 641" stroke-width="6" stroke="url(#SvgjsLinearGradient19639)" stroke-linecap="round" class="Up"></path><path d="M1388 317L1387 -15" stroke-width="8" stroke="url(#SvgjsLinearGradient19639)" stroke-linecap="round" class="Up"></path><path d="M705 531L704 259" stroke-width="6" stroke="url(#SvgjsLinearGradient19639)" stroke-linecap="round" class="Up"></path><path d="M1257 521L1256 356" stroke-width="8" stroke="url(#SvgjsLinearGradient19639)" stroke-linecap="round" class="Up"></path><path d="M627 48L626 371" stroke-width="6" stroke="url(#SvgjsLinearGradient19639)" stroke-linecap="round" class="Up"></path><path d="M190 144L189 550" stroke-width="10" stroke="url(#SvgjsLinearGradient19639)" stroke-linecap="round" class="Up"></path><path d="M758 63L757 -250" stroke-width="10" stroke="url(#SvgjsLinearGradient19640)" stroke-linecap="round" class="Down"></path><path d="M1176 323L1175 603" stroke-width="10" stroke="url(#SvgjsLinearGradient19639)" stroke-linecap="round" class="Up"></path><path d="M1151 496L1150 670" stroke-width="10" stroke="url(#SvgjsLinearGradient19639)" stroke-linecap="round" class="Up"></path><path d="M679 409L678 582" stroke-width="10" stroke="url(#SvgjsLinearGradient19639)" stroke-linecap="round" class="Up"></path><path d="M1279 21L1278 335" stroke-width="6" stroke="url(#SvgjsLinearGradient19639)" stroke-linecap="round" class="Up"></path><path d="M308 330L307 -90" stroke-width="10" stroke="url(#SvgjsLinearGradient19640)" stroke-linecap="round" class="Down"></path><path d="M220 556L219 813" stroke-width="6" stroke="url(#SvgjsLinearGradient19639)" stroke-linecap="round" class="Up"></path><path d="M1038 452L1037 850" stroke-width="6" stroke="url(#SvgjsLinearGradient19639)" stroke-linecap="round" class="Up"></path><path d="M567 541L566 281" stroke-width="8" stroke="url(#SvgjsLinearGradient19639)" stroke-linecap="round" class="Up"></path><path d="M355 199L354 597" stroke-width="10" stroke="url(#SvgjsLinearGradient19640)" stroke-linecap="round" class="Down"></path><path d="M1009 551L1008 939" stroke-width="10" stroke="url(#SvgjsLinearGradient19639)" stroke-linecap="round" class="Up"></path><path d="M1163 5L1162 266" stroke-width="10" stroke="url(#SvgjsLinearGradient19639)" stroke-linecap="round" class="Up"></path><path d="M334 259L333 592" stroke-width="8" stroke="url(#SvgjsLinearGradient19639)" stroke-linecap="round" class="Up"></path><path d="M329 40L328 275" stroke-width="8" stroke="url(#SvgjsLinearGradient19640)" stroke-linecap="round" class="Down"></path><path d="M537 398L536 23" stroke-width="6" stroke="url(#SvgjsLinearGradient19639)" stroke-linecap="round" class="Up"></path><path d="M952 165L951 423" stroke-width="6" stroke="url(#SvgjsLinearGradient19640)" stroke-linecap="round" class="Down"></path></g><defs><mask id="SvgjsMask19637"><rect width="1440" height="560" fill="#ffffff"></rect></mask><linearGradient x1="50%" y1="100%" x2="50%" y2="0%" gradientUnits="userSpaceOnUse" id="SvgjsLinearGradient19638"><stop stop-color="rgba(146, 0, 172, 1)" offset="0"></stop><stop stop-color="rgba(3, 3, 3, 1)" offset="0.8"></stop></linearGradient><linearGradient x1="0%" y1="100%" x2="0%" y2="0%" id="SvgjsLinearGradient19639"><stop stop-color="rgba(110, 0, 110, 0)" offset="0"></stop><stop stop-color="rgba(110, 0, 110, 1)" offset="1"></stop></linearGradient><linearGradient x1="0%" y1="0%" x2="0%" y2="100%" id="SvgjsLinearGradient19640"><stop stop-color="rgba(110, 0, 110, 0)" offset="0"></stop><stop stop-color="rgba(110, 0, 110, 1)" offset="1"></stop></linearGradient></defs></svg>