<svg xmlns="http://www.w3.org/2000/svg" version="1.1" xmlns:xlink="http://www.w3.org/1999/xlink" xmlns:svgjs="http://svgjs.com/svgjs" width="1440" height="560" preserveAspectRatio="none" viewBox="0 0 1440 560"><g mask="url(&quot;#SvgjsMask1000&quot;)" fill="none"><rect width="1440" height="560" x="0" y="0" fill="#0e2a47"></rect><path d="M 0,263 C 57.6,225.2 172.8,87 288,74 C 403.2,61 460.8,202.2 576,198 C 691.2,193.8 748.8,49 864,53 C 979.2,57 1036.8,224.8 1152,218 C 1267.2,211.2 1382.4,58.8 1440,19L1440 560L0 560z" fill="#184a7e"></path><path d="M 0,386 C 96,415.8 288,529.8 480,535 C 672,540.2 768,429.8 960,412 C 1152,394.2 1344,439.2 1440,446L1440 560L0 560z" fill="#2264ab"></path></g><defs><mask id="SvgjsMask1000"><rect width="1440" height="560" fill="#ffffff"></rect></mask></defs></svg>